<?xml version="1.0" encoding="iso-8859-1"?>
<!-- Generator: Adobe Illustrator 19.0.0, SVG Export Plug-In . SVG Version: 6.00 Build 0)  -->
<svg version="1.1" id="Capa_1" xmlns="http://www.w3.org/2000/svg" xmlns:xlink="http://www.w3.org/1999/xlink" x="0px" y="0px"
	 viewBox="0 0 49.079 49.079" style="enable-background:new 0 0 49.079 49.079;" xml:space="preserve">
<g>
	<g>
		<path d="M49.061,25.294c-0.065-0.375-0.381-0.6-0.838-0.605c-0.141-0.002-0.281,0.012-0.418-0.003
			c-0.27-0.028-0.341,0.062-0.339,0.276c0.013,1.05,0.009,2.099,0.005,3.146c-0.003,0.549-0.539,1.113-1.183,1.256
			c-2,0.439-3.998,0.885-6,1.32c-0.225,0.049-0.462,0.074-0.691,0.072c-0.1,0-0.238-0.076-0.281-0.15
			c-0.028-0.049,0.06-0.168,0.129-0.229c0.091-0.074,0.207-0.133,0.326-0.174c0.367-0.131,0.74-0.25,1.111-0.373
			c1.485-0.494,2.973-0.982,4.456-1.479c0.669-0.226,1.03-0.672,1.041-1.235c0.034-1.824,0.017-3.648,0.009-5.474
			c0-0.289-0.15-0.53-0.494-0.655c-0.396-0.142-0.744-0.029-1.088,0.135c-2.102,1.003-4.203,2.004-6.307,3.005
			c-0.619,0.295-0.964,0.722-0.961,1.33c0.007,1.725,0.002,3.447,0.004,5.17c0,0.086,0.009,0.174,0.036,0.256
			c0.207,0.586,0.744,0.922,1.486,0.922c1.479,0.004,2.963,0.002,4.443,0.002c1.475,0,2.945,0.002,4.42-0.002
			c0.32,0,0.615-0.066,0.855-0.264c0.311-0.25,0.295-0.568,0.295-0.885c0.003-1.68,0.003-3.358,0.001-5.041
			C49.081,25.51,49.079,25.4,49.061,25.294z M42.911,24.755c0.149-0.387,0.474-0.629,0.97-0.691
			c0.328-0.042,0.614,0.161,0.661,0.457c0.071,0.456-0.499,0.986-1.062,0.984C43.01,25.505,42.748,25.176,42.911,24.755z"/>
	</g>
</g>
<g>
	<g>
		<path d="M7.612,18.087c0,0.532,0,1.053,0,1.579c-0.403,0-0.778,0-1.182,0c0-0.537,0-1.058,0-1.584c-0.219,0-0.409,0-0.618,0
			c0,1.317,0,2.611,0,3.908c0.216,0,0.411,0,0.637,0c0-0.592,0-1.168,0-1.75c0.4,0,0.77,0,1.167,0c0,0.59,0,1.167,0,1.752
			c0.225,0,0.42,0,0.629,0c0-1.308,0-2.604,0-3.905C8.031,18.087,7.836,18.087,7.612,18.087z"/>
	</g>
</g>
<g>
	<g>
		<path d="M23.333,28.844c-0.186-0.929-0.892-1.493-2.019-1.586c-0.444-0.034-0.896-0.006-1.375-0.006c0-0.819,0-1.647,0-2.473
			c-0.34,0-0.648,0-0.964,0c0,2.276,0,4.536,0,6.876c0.713,0,1.402,0.041,2.082-0.011c1.019-0.076,1.796-0.481,2.16-1.312
			C23.429,29.85,23.433,29.348,23.333,28.844z M21.842,29.886c-0.179,0.76-0.957,1.118-1.895,0.896c0-0.844-0.004-1.674,0.008-2.506
			c0-0.055,0.096-0.145,0.165-0.158c0.938-0.199,1.565,0.113,1.728,0.896C21.906,29.295,21.908,29.604,21.842,29.886z"/>
	</g>
</g>
<g>
	<g>
		<path d="M4.305,15.98c-0.341,0-0.68,0.001-1.02,0c-0.48-0.002-0.878,0.148-1.205,0.437c-1.123,0.994-0.828,2.882,0.666,3.285
			c-0.502,0.754-1.001,1.506-1.524,2.294c0.213,0,0.377-0.011,0.537,0.003c0.212,0.019,0.321-0.05,0.419-0.207
			c0.374-0.607,0.771-1.205,1.159-1.807c0.179-0.276,0.201-0.284,0.623-0.203c0,0.728,0,1.462,0,2.195c0.255,0,0.476,0,0.716,0
			c0-0.126,0-0.232,0-0.34c0-1.786,0-3.573,0-5.36C4.676,15.98,4.675,15.981,4.305,15.98z M3.94,19.152
			c-0.487-0.005-0.995,0.116-1.366-0.249c-0.425-0.417-0.546-0.899-0.389-1.428c0.013-0.042,0.034-0.082,0.051-0.122
			c0.316-0.727,0.733-0.929,1.704-0.808C3.94,17.414,3.94,18.271,3.94,19.152z"/>
	</g>
</g>
<g>
	<g>
		<path d="M22.003,21.429c-1.061,0.354-1.793,0.034-1.985-0.89c-0.101-0.479-0.065-0.961,0.11-1.428
			c0.236-0.638,0.705-0.828,1.485-0.617c0.015,0.004,0.033-0.003,0.06-0.007c0.078-0.097,0.158-0.199,0.245-0.308
			c-0.644-0.423-1.527-0.322-2.007,0.212c-0.371,0.412-0.516,0.889-0.563,1.39c-0.053,0.575,0.018,1.133,0.398,1.638
			c0.398,0.528,1.088,0.776,1.798,0.61C22.045,21.911,22.101,21.859,22.003,21.429z"/>
	</g>
</g>
<g>
	<g>
		<path d="M5.205,30.843c0-2.03,0-4.037,0-6.062c-1.243,0-2.447,0-3.621,0c-0.05,1.029-0.074,2.041-0.156,3.051
			c-0.073,0.896-0.271,1.775-0.667,2.621c-0.131,0.279-0.288,0.463-0.688,0.396C0.052,30.846,0.026,30.862,0,30.872
			c0,0.744,0,1.484,0,2.224c0.365,0,0.709,0,1.081,0c0-0.503,0-0.986,0-1.468c1.313,0,2.6,0,3.915,0c0,0.498,0,0.98,0,1.472
			c0.366,0,0.702,0,1.05,0c0-0.752,0-1.494,0-2.257C5.757,30.843,5.49,30.843,5.205,30.843z M4.032,30.835c-0.812,0-1.615,0-2.37,0
			c0.202-0.506,0.449-1.004,0.599-1.521c0.301-1.039,0.299-2.105,0.307-3.168c0.002-0.164,0-0.33,0-0.51c0.491,0,0.967,0,1.465,0
			C4.032,27.356,4.032,29.081,4.032,30.835z"/>
	</g>
</g>
<g>
	<g>
		<path d="M15.381,21.482c-0.183,0.053-0.359,0.117-0.543,0.154c-0.513,0.104-0.879-0.01-1.074-0.333
			c-0.229-0.378-0.218-0.784-0.204-1.209c0.658,0,1.29,0,1.935,0c0.042-0.636-0.036-1.232-0.439-1.774
			c-0.354-0.476-0.967-0.552-1.454-0.161c-0.183,0.146-0.337,0.333-0.445,0.523c-0.302,0.529-0.417,1.099-0.346,1.677
			c0.045,0.359,0.144,0.724,0.297,1.062c0.222,0.497,0.735,0.751,1.328,0.688c0.287-0.03,0.574-0.111,0.844-0.205
			C15.581,21.8,15.589,21.704,15.381,21.482z M13.881,18.616c0.218-0.271,0.578-0.263,0.771,0.021
			c0.216,0.315,0.242,0.663,0.233,1.028c-0.469,0-0.898,0-1.348,0C13.558,19.283,13.631,18.929,13.881,18.616z"/>
	</g>
</g>
<g>
	<g>
		<path d="M17.16,24.909c-0.042-0.051-0.095-0.128-0.148-0.13c-0.319-0.013-0.639-0.008-0.992-0.008c0,0.949,0,1.885,0,2.826
			c-0.694,0-1.354,0-2.07,0c0-0.949,0-1.879,0-2.821c-0.387,0-0.74,0-1.104,0c0,2.305,0,4.598,0,6.902c0.375,0,0.734,0,1.118,0
			c0-0.1,0-0.186,0-0.27c0-0.806-0.001-1.607,0-2.412c0-0.443,0-0.443,0.53-0.443c0.502,0,1.004,0,1.534,0c0,1.061,0,2.09,0,3.127
			c0.389,0,0.749,0,1.122,0c0.005-0.076,0.013-0.141,0.013-0.203c0-2.162,0-4.324,0-6.484C17.163,24.964,17.177,24.928,17.16,24.909
			z"/>
	</g>
</g>
<g>
	<g>
		<path d="M17.777,19.615c0.386-0.444,0.755-0.897,1.13-1.346c0.046-0.055,0.086-0.113,0.15-0.197c-0.121,0-0.192,0.008-0.259-0.001
			c-0.274-0.037-0.441,0.052-0.59,0.248c-0.329,0.432-0.694,0.844-1.046,1.263c-0.04,0.047-0.09,0.088-0.186,0.181
			c0-0.601,0-1.135,0-1.68c-0.216,0-0.405,0-0.611,0c0,1.286,0,2.551,0,3.815c0.21,0,0.399,0,0.62,0c0-0.453-0.01-0.897,0.006-1.339
			c0.006-0.152,0.076-0.304,0.116-0.456c0.119,0.073,0.17,0.138,0.215,0.206c0.319,0.479,0.634,0.958,0.956,1.434
			c0.042,0.063,0.114,0.148,0.182,0.157c0.182,0.023,0.369,0.008,0.594,0.008c-0.448-0.682-0.866-1.326-1.294-1.967
			C17.679,19.821,17.673,19.734,17.777,19.615z"/>
	</g>
</g>
<g>
	<g>
		<path d="M32.466,24.757c-0.18-0.006-0.261,0.045-0.325,0.182c-0.433,0.954-0.877,1.903-1.318,2.854
			c-0.193,0.416-0.393,0.832-0.588,1.248c-0.019-0.002-0.034-0.006-0.053-0.008c0-1.416,0-2.832,0-4.259c-0.388,0-0.748,0-1.117,0
			c0,2.309,0,4.61,0,6.912c0.369,0,0.717,0,1.097,0c0.697-1.506,1.394-3.018,2.097-4.543c0,1.518,0,3.029,0,4.539
			c0.438,0,0.844,0,1.262,0c0-2.309,0-4.602,0-6.92C33.158,24.762,32.812,24.772,32.466,24.757z"/>
	</g>
</g>
<g>
	<g>
		<path d="M11.315,30.693c-0.343,0.106-0.652,0.227-0.978,0.294c-1.059,0.217-1.751-0.076-2.053-0.844
			c-0.233-0.59-0.224-1.199-0.234-1.842c1.16,0,2.285,0,3.456,0c-0.048-0.535-0.053-1.057-0.15-1.562
			c-0.123-0.633-0.367-1.24-0.872-1.75c-0.447-0.451-0.985-0.582-1.656-0.4c-0.697,0.189-1.122,0.627-1.408,1.146
			c-0.838,1.523-0.91,3.092-0.268,4.674c0.193,0.478,0.52,0.894,1.064,1.16c0.912,0.449,2.387,0.293,3.312-0.354
			C11.455,31.035,11.381,30.853,11.315,30.693z M8.572,25.798c0.163-0.229,0.38-0.416,0.744-0.399
			c0.356,0.019,0.567,0.205,0.71,0.447c0.316,0.543,0.369,1.125,0.366,1.729c-0.796,0-1.565,0-2.375,0
			C8.077,26.936,8.189,26.337,8.572,25.798z"/>
	</g>
</g>
<g>
	<g>
		<path d="M11.834,21.471c0-1.136,0-2.258,0-3.389c-0.687,0-1.346,0-2.043,0c0,0.254,0.009,0.482-0.001,0.711
			c-0.034,0.796-0.063,1.593-0.395,2.355c-0.082,0.188-0.143,0.389-0.46,0.347c0,0.424,0,0.828,0,1.23c0.2,0,0.379,0,0.589,0
			c0-0.275,0-0.537,0-0.799c0.748,0,1.464,0,2.213,0c0,0.277,0,0.539,0,0.795c0.21,0,0.387,0,0.557,0c0-0.424,0-0.828,0-1.232
			C12.134,21.483,11.998,21.477,11.834,21.471z M11.189,21.471c-0.466,0-0.904,0-1.376,0c0.597-0.924,0.516-1.917,0.559-2.908
			c0.273,0,0.537,0,0.817,0C11.189,19.531,11.189,20.49,11.189,21.471z"/>
	</g>
</g>
<g>
	<g>
		<path d="M24.367,24.772c0,2.314,0,4.611,0.003,6.909c0.344,0,0.671,0,1.021,0c0-2.072,0-4.129,0-6.214c1.052,0,2.084,0,3.113,0
			c0-0.247,0-0.466,0-0.695C27.122,24.772,25.758,24.772,24.367,24.772z"/>
	</g>
</g>
<g>
</g>
<g>
</g>
<g>
</g>
<g>
</g>
<g>
</g>
<g>
</g>
<g>
</g>
<g>
</g>
<g>
</g>
<g>
</g>
<g>
</g>
<g>
</g>
<g>
</g>
<g>
</g>
<g>
</g>
</svg>
